<svg xmlns="http://www.w3.org/2000/svg" xmlns:xlink="http://www.w3.org/1999/xlink" width="1920" zoomAndPan="magnify" viewBox="0 0 1440 809.999993" height="1080" preserveAspectRatio="xMidYMid meet" version="1.0"><defs><g/></defs><g fill="#e43b2c" fill-opacity="1"><g transform="translate(96.020224, 502.727446)"><g><path d="M 137.09375 0 L 21.109375 0 L 21.109375 -195.34375 L 137.09375 -195.34375 L 137.09375 -152.984375 L 73.890625 -152.984375 L 73.890625 -122.25 L 132.40625 -122.25 L 132.40625 -79.90625 L 73.890625 -79.90625 L 73.890625 -43.03125 L 137.09375 -43.03125 Z M 137.09375 0 "/></g></g><g transform="translate(246.199862, 502.727446)"><g><path d="M 197.078125 0 L 136.015625 0 L 97.9375 -61.0625 L 60.265625 0 L 0.53125 0 L 65.34375 -99.9375 L 4.40625 -195.34375 L 62.9375 -195.34375 L 98.203125 -134.953125 L 132.140625 -195.34375 L 192.40625 -195.34375 L 130.546875 -95.796875 Z M 197.078125 0 "/></g></g><g transform="translate(444.078902, 502.727446)"><g><path d="M 162.875 -133.21875 C 162.875 -111.394531 156.4375 -94.535156 143.5625 -82.640625 C 130.695312 -70.742188 112.414062 -64.796875 88.71875 -64.796875 L 73.890625 -64.796875 L 73.890625 0 L 21.109375 0 L 21.109375 -195.34375 L 88.71875 -195.34375 C 113.394531 -195.34375 131.921875 -189.953125 144.296875 -179.171875 C 156.679688 -168.398438 162.875 -153.082031 162.875 -133.21875 Z M 73.890625 -107.828125 L 83.515625 -107.828125 C 91.441406 -107.828125 97.738281 -110.050781 102.40625 -114.5 C 107.082031 -118.957031 109.421875 -125.109375 109.421875 -132.953125 C 109.421875 -146.128906 102.117188 -152.71875 87.515625 -152.71875 L 73.890625 -152.71875 Z M 73.890625 -107.828125 "/></g></g><g transform="translate(616.972541, 502.727446)"><g><path d="M 203.890625 -97.9375 C 203.890625 -65.070312 195.828125 -40.085938 179.703125 -22.984375 C 163.585938 -5.878906 139.984375 2.671875 108.890625 2.671875 C 78.253906 2.671875 54.757812 -5.921875 38.40625 -23.109375 C 22.0625 -40.304688 13.890625 -65.335938 13.890625 -98.203125 C 13.890625 -130.710938 22.019531 -155.539062 38.28125 -172.6875 C 54.539062 -189.84375 78.164062 -198.421875 109.15625 -198.421875 C 140.25 -198.421875 163.8125 -189.910156 179.84375 -172.890625 C 195.875 -155.878906 203.890625 -130.894531 203.890625 -97.9375 Z M 69.484375 -97.9375 C 69.484375 -60.164062 82.617188 -41.28125 108.890625 -41.28125 C 122.253906 -41.28125 132.164062 -45.867188 138.625 -55.046875 C 145.082031 -64.222656 148.3125 -78.519531 148.3125 -97.9375 C 148.3125 -117.445312 145.035156 -131.851562 138.484375 -141.15625 C 131.941406 -150.46875 122.164062 -155.125 109.15625 -155.125 C 82.707031 -155.125 69.484375 -136.0625 69.484375 -97.9375 Z M 69.484375 -97.9375 "/></g></g><g transform="translate(835.02696, 502.727446)"><g><path d="M 148.84375 -59.328125 C 148.84375 -47.210938 145.769531 -36.453125 139.625 -27.046875 C 133.476562 -17.648438 124.613281 -10.347656 113.03125 -5.140625 C 101.457031 0.0664062 87.875 2.671875 72.28125 2.671875 C 59.28125 2.671875 48.367188 1.757812 39.546875 -0.0625 C 30.734375 -1.894531 21.5625 -5.082031 12.03125 -9.625 L 12.03125 -56.65625 C 22.09375 -51.488281 32.554688 -47.457031 43.421875 -44.5625 C 54.285156 -41.664062 64.265625 -40.21875 73.359375 -40.21875 C 81.191406 -40.21875 86.929688 -41.578125 90.578125 -44.296875 C 94.234375 -47.015625 96.0625 -50.507812 96.0625 -54.78125 C 96.0625 -57.457031 95.328125 -59.796875 93.859375 -61.796875 C 92.390625 -63.796875 90.03125 -65.820312 86.78125 -67.875 C 83.53125 -69.925781 74.867188 -74.113281 60.796875 -80.4375 C 48.054688 -86.226562 38.5 -91.835938 32.125 -97.265625 C 25.757812 -102.703125 21.039062 -108.9375 17.96875 -115.96875 C 14.894531 -123.007812 13.359375 -131.34375 13.359375 -140.96875 C 13.359375 -158.957031 19.90625 -172.984375 33 -183.046875 C 46.09375 -193.117188 64.085938 -198.15625 86.984375 -198.15625 C 107.203125 -198.15625 127.820312 -193.476562 148.84375 -184.125 L 132.671875 -143.375 C 114.410156 -151.738281 98.644531 -155.921875 85.375 -155.921875 C 78.519531 -155.921875 73.53125 -154.71875 70.40625 -152.3125 C 67.289062 -149.914062 65.734375 -146.9375 65.734375 -143.375 C 65.734375 -139.539062 67.710938 -136.109375 71.671875 -133.078125 C 75.640625 -130.046875 86.398438 -124.523438 103.953125 -116.515625 C 120.785156 -108.941406 132.472656 -100.8125 139.015625 -92.125 C 145.566406 -83.4375 148.84375 -72.503906 148.84375 -59.328125 Z M 148.84375 -59.328125 "/></g></g><g transform="translate(992.956081, 502.727446)"><g><path d="M 137.09375 0 L 21.109375 0 L 21.109375 -195.34375 L 137.09375 -195.34375 L 137.09375 -152.984375 L 73.890625 -152.984375 L 73.890625 -122.25 L 132.40625 -122.25 L 132.40625 -79.90625 L 73.890625 -79.90625 L 73.890625 -43.03125 L 137.09375 -43.03125 Z M 137.09375 0 "/></g></g><g transform="translate(1143.135719, 502.727446)"><g><path d="M 186.921875 -101.8125 C 186.921875 -69.207031 177.945312 -44.085938 160 -26.453125 C 142.050781 -8.816406 116.820312 0 84.3125 0 L 21.109375 0 L 21.109375 -195.34375 L 88.71875 -195.34375 C 120.070312 -195.34375 144.273438 -187.320312 161.328125 -171.28125 C 178.390625 -155.25 186.921875 -132.09375 186.921875 -101.8125 Z M 132.140625 -99.9375 C 132.140625 -117.84375 128.597656 -131.113281 121.515625 -139.75 C 114.441406 -148.394531 103.6875 -152.71875 89.25 -152.71875 L 73.890625 -152.71875 L 73.890625 -43.296875 L 85.640625 -43.296875 C 101.679688 -43.296875 113.441406 -47.945312 120.921875 -57.25 C 128.398438 -66.5625 132.140625 -80.789062 132.140625 -99.9375 Z M 132.140625 -99.9375 "/></g></g></g><g fill="#ff00ff" fill-opacity="1"><g transform="translate(124.214569, 432.021092)"><g><path d="M 26.78125 1.140625 C 21.59375 1.140625 16.679688 0.691406 12.046875 -0.203125 C 7.421875 -1.097656 3.863281 -2.113281 1.375 -3.25 L 1.375 -19.3125 L 19.234375 -19.3125 C 19.234375 -17.632812 19.613281 -16.414062 20.375 -15.65625 C 21.132812 -14.90625 22.515625 -14.53125 24.515625 -14.53125 C 26.191406 -14.53125 27.394531 -14.785156 28.125 -15.296875 C 28.851562 -15.816406 29.21875 -16.585938 29.21875 -17.609375 C 29.21875 -18.472656 28.863281 -19.21875 28.15625 -19.84375 C 27.457031 -20.46875 26.242188 -21.101562 24.515625 -21.75 L 17.53125 -24.1875 C 11.519531 -26.457031 7.203125 -29.132812 4.578125 -32.21875 C 1.960938 -35.3125 0.65625 -39.476562 0.65625 -44.71875 C 0.65625 -51.101562 2.75 -55.957031 6.9375 -59.28125 C 11.132812 -62.613281 18.128906 -64.28125 27.921875 -64.28125 C 32.628906 -64.28125 37.050781 -63.804688 41.1875 -62.859375 C 45.332031 -61.921875 48.675781 -60.664062 51.21875 -59.09375 L 51.21875 -44.5625 L 34.984375 -44.5625 C 34.984375 -47.269531 33.304688 -48.625 29.953125 -48.625 C 28.328125 -48.625 27.175781 -48.421875 26.5 -48.015625 C 25.820312 -47.609375 25.484375 -46.890625 25.484375 -45.859375 C 25.484375 -44.941406 25.875 -44.210938 26.65625 -43.671875 C 27.445312 -43.128906 28.734375 -42.5625 30.515625 -41.96875 L 37.578125 -39.53125 C 43.316406 -37.582031 47.5 -35.050781 50.125 -31.9375 C 52.75 -28.832031 54.0625 -24.757812 54.0625 -19.71875 C 54.0625 -12.851562 51.75 -7.660156 47.125 -4.140625 C 42.5 -0.617188 35.71875 1.140625 26.78125 1.140625 Z M 26.78125 1.140625 "/></g></g></g><g fill="#ff00ff" fill-opacity="1"><g transform="translate(178.919099, 432.021092)"><g><path d="M 62.171875 -43.515625 L 48.21875 -43.515625 L 48.21875 -49.84375 L 43.015625 -49.84375 L 43.015625 -13.3125 L 48.703125 -13.3125 L 48.703125 0 L 14.609375 0 L 14.609375 -13.3125 L 20.296875 -13.3125 L 20.296875 -49.84375 L 15.09375 -49.84375 L 15.09375 -43.515625 L 1.140625 -43.515625 L 1.140625 -63.15625 L 62.171875 -63.15625 Z M 62.171875 -43.515625 "/></g></g></g><g fill="#ff00ff" fill-opacity="1"><g transform="translate(242.227022, 432.021092)"><g><path d="M 32.140625 1.140625 C 22.242188 1.140625 14.601562 -1.457031 9.21875 -6.65625 C 3.832031 -11.851562 1.140625 -20.160156 1.140625 -31.578125 C 1.140625 -42.992188 3.832031 -51.296875 9.21875 -56.484375 C 14.601562 -61.679688 22.242188 -64.28125 32.140625 -64.28125 C 42.046875 -64.28125 49.691406 -61.679688 55.078125 -56.484375 C 60.460938 -51.296875 63.15625 -42.992188 63.15625 -31.578125 C 63.15625 -20.160156 60.460938 -11.851562 55.078125 -6.65625 C 49.691406 -1.457031 42.046875 1.140625 32.140625 1.140625 Z M 32.140625 -13.3125 C 33.984375 -13.3125 35.363281 -13.796875 36.28125 -14.765625 C 37.195312 -15.742188 37.65625 -17.257812 37.65625 -19.3125 L 37.65625 -43.828125 C 37.65625 -45.890625 37.195312 -47.40625 36.28125 -48.375 C 35.363281 -49.351562 33.984375 -49.84375 32.140625 -49.84375 C 30.304688 -49.84375 28.925781 -49.351562 28 -48.375 C 27.082031 -47.40625 26.625 -45.890625 26.625 -43.828125 L 26.625 -19.3125 C 26.625 -17.207031 27.082031 -15.679688 28 -14.734375 C 28.925781 -13.785156 30.304688 -13.3125 32.140625 -13.3125 Z M 32.140625 -13.3125 "/></g></g></g><g fill="#ff00ff" fill-opacity="1"><g transform="translate(306.508906, 432.021092)"><g><path d="M 33.125 1.140625 C 22.894531 1.140625 15.003906 -1.457031 9.453125 -6.65625 C 3.910156 -11.851562 1.140625 -20.160156 1.140625 -31.578125 C 1.140625 -53.378906 11.742188 -64.28125 32.953125 -64.28125 C 38.097656 -64.28125 42.875 -63.65625 47.28125 -62.40625 C 51.6875 -61.164062 54.972656 -59.789062 57.140625 -58.28125 L 57.140625 -37.984375 L 37.65625 -37.984375 L 37.65625 -43.828125 C 37.65625 -45.890625 37.195312 -47.40625 36.28125 -48.375 C 35.363281 -49.351562 33.984375 -49.84375 32.140625 -49.84375 C 30.304688 -49.84375 28.925781 -49.351562 28 -48.375 C 27.082031 -47.40625 26.625 -45.890625 26.625 -43.828125 L 26.625 -19.3125 C 26.625 -17.257812 27.082031 -15.742188 28 -14.765625 C 28.925781 -13.796875 30.304688 -13.3125 32.140625 -13.3125 C 33.984375 -13.3125 35.363281 -13.796875 36.28125 -14.765625 C 37.195312 -15.742188 37.65625 -17.257812 37.65625 -19.3125 L 37.65625 -25.890625 L 57.140625 -25.890625 L 57.140625 -4.875 C 54.921875 -3.351562 51.632812 -1.96875 47.28125 -0.71875 C 42.925781 0.519531 38.207031 1.140625 33.125 1.140625 Z M 33.125 1.140625 "/></g></g></g><g fill="#ff00ff" fill-opacity="1"><g transform="translate(365.109301, 432.021092)"><g><path d="M 62.421875 -13.3125 L 66.484375 -13.3125 L 66.484375 0 L 44.3125 0 L 32.140625 -25.15625 L 28.40625 -22.078125 L 28.40625 -13.3125 L 32.3125 -13.3125 L 32.3125 0 L 1.625 0 L 1.625 -13.3125 L 5.6875 -13.3125 L 5.6875 -49.84375 L 1.625 -49.84375 L 1.625 -63.15625 L 32.3125 -63.15625 L 32.3125 -49.84375 L 28.40625 -49.84375 L 28.40625 -39.125 L 40.984375 -49.84375 L 35.875 -49.84375 L 35.875 -63.15625 L 66.078125 -63.15625 L 66.078125 -49.84375 L 62.015625 -49.84375 L 48.453125 -38.640625 Z M 62.421875 -13.3125 "/></g></g></g><g fill="#ff00ff" fill-opacity="1"><g transform="translate(432.881255, 432.021092)"><g/></g></g><g fill="#ff00ff" fill-opacity="1"><g transform="translate(457.230459, 432.021092)"><g><path d="M 91.15625 -49.84375 L 87.09375 -49.84375 L 87.09375 -13.3125 L 91.15625 -13.3125 L 91.15625 0 L 60.46875 0 L 60.46875 -13.3125 L 64.375 -13.3125 L 64.375 -41.71875 L 50.5625 0 L 38.5625 0 L 24.359375 -41.3125 L 24.359375 -13.3125 L 28.25 -13.3125 L 28.25 0 L 1.625 0 L 1.625 -13.3125 L 5.6875 -13.3125 L 5.6875 -49.84375 L 1.625 -49.84375 L 1.625 -63.15625 L 38.796875 -63.15625 L 47.234375 -37.828125 L 55.359375 -63.15625 L 91.15625 -63.15625 Z M 91.15625 -49.84375 "/></g></g></g><g fill="#ff00ff" fill-opacity="1"><g transform="translate(550.000909, 432.021092)"><g><path d="M 61.203125 -13.3125 L 64.453125 -13.3125 L 64.453125 0 L 32.625 0 L 32.625 -13.3125 L 37.5 -13.3125 L 36.203125 -19.8125 L 25.15625 -19.8125 L 23.859375 -13.3125 L 28.734375 -13.3125 L 28.734375 0 L 0.96875 0 L 0.96875 -13.3125 L 4.21875 -13.3125 L 17.9375 -63.15625 L 47.484375 -63.15625 Z M 26.953125 -28.40625 L 34.421875 -28.40625 L 31.09375 -44.5625 L 30.28125 -44.5625 Z M 26.953125 -28.40625 "/></g></g></g><g fill="#ff00ff" fill-opacity="1"><g transform="translate(615.419088, 432.021092)"><g><path d="M 1.625 -13.3125 L 5.6875 -13.3125 L 5.6875 -49.84375 L 1.625 -49.84375 L 1.625 -63.15625 L 38.875 -63.15625 C 45.863281 -63.15625 51.195312 -61.71875 54.875 -58.84375 C 58.550781 -55.976562 60.390625 -51.328125 60.390625 -44.890625 C 60.390625 -41.265625 59.660156 -38.125 58.203125 -35.46875 C 56.742188 -32.820312 54.660156 -30.984375 51.953125 -29.953125 L 52.03125 -29.140625 C 57.226562 -28.328125 59.828125 -25.132812 59.828125 -19.5625 L 59.828125 -13.3125 L 63.640625 -13.3125 L 63.640625 0 L 37.90625 0 L 37.90625 -19.078125 C 37.90625 -21.179688 37.59375 -22.773438 36.96875 -23.859375 C 36.351562 -24.941406 35.378906 -25.671875 34.046875 -26.046875 C 32.722656 -26.429688 30.84375 -26.625 28.40625 -26.625 L 28.40625 -13.3125 L 33.765625 -13.3125 L 33.765625 0 L 1.625 0 Z M 32.796875 -36.53125 C 34.359375 -36.53125 35.53125 -36.945312 36.3125 -37.78125 C 37.101562 -38.625 37.5 -39.9375 37.5 -41.71875 L 37.5 -44.640625 C 37.5 -46.429688 37.101562 -47.742188 36.3125 -48.578125 C 35.53125 -49.421875 34.359375 -49.84375 32.796875 -49.84375 L 28.40625 -49.84375 L 28.40625 -36.53125 Z M 32.796875 -36.53125 "/></g></g></g><g fill="#ff00ff" fill-opacity="1"><g transform="translate(680.350298, 432.021092)"><g><path d="M 62.421875 -13.3125 L 66.484375 -13.3125 L 66.484375 0 L 44.3125 0 L 32.140625 -25.15625 L 28.40625 -22.078125 L 28.40625 -13.3125 L 32.3125 -13.3125 L 32.3125 0 L 1.625 0 L 1.625 -13.3125 L 5.6875 -13.3125 L 5.6875 -49.84375 L 1.625 -49.84375 L 1.625 -63.15625 L 32.3125 -63.15625 L 32.3125 -49.84375 L 28.40625 -49.84375 L 28.40625 -39.125 L 40.984375 -49.84375 L 35.875 -49.84375 L 35.875 -63.15625 L 66.078125 -63.15625 L 66.078125 -49.84375 L 62.015625 -49.84375 L 48.453125 -38.640625 Z M 62.421875 -13.3125 "/></g></g></g><g fill="#ff00ff" fill-opacity="1"><g transform="translate(748.122252, 432.021092)"><g><path d="M 1.625 0 L 1.625 -13.3125 L 5.6875 -13.3125 L 5.6875 -49.84375 L 1.625 -49.84375 L 1.625 -63.15625 L 56.421875 -63.15625 L 56.421875 -38.640625 L 38.234375 -38.640625 L 38.234375 -49.84375 L 28.40625 -49.84375 L 28.40625 -37.015625 L 35.546875 -37.015625 L 35.546875 -27.765625 L 28.40625 -27.765625 L 28.40625 -13.3125 L 38.234375 -13.3125 L 38.234375 -26.140625 L 56.421875 -26.140625 L 56.421875 0 Z M 1.625 0 "/></g></g></g><g fill="#ff00ff" fill-opacity="1"><g transform="translate(805.992183, 432.021092)"><g><path d="M 62.171875 -43.515625 L 48.21875 -43.515625 L 48.21875 -49.84375 L 43.015625 -49.84375 L 43.015625 -13.3125 L 48.703125 -13.3125 L 48.703125 0 L 14.609375 0 L 14.609375 -13.3125 L 20.296875 -13.3125 L 20.296875 -49.84375 L 15.09375 -49.84375 L 15.09375 -43.515625 L 1.140625 -43.515625 L 1.140625 -63.15625 L 62.171875 -63.15625 Z M 62.171875 -43.515625 "/></g></g></g><g fill="#ff00ff" fill-opacity="1"><g transform="translate(869.300117, 432.021092)"><g/></g></g><g fill="#ff00ff" fill-opacity="1"><g transform="translate(893.649344, 432.021092)"><g><path d="M 26.78125 1.140625 C 21.59375 1.140625 16.679688 0.691406 12.046875 -0.203125 C 7.421875 -1.097656 3.863281 -2.113281 1.375 -3.25 L 1.375 -19.3125 L 19.234375 -19.3125 C 19.234375 -17.632812 19.613281 -16.414062 20.375 -15.65625 C 21.132812 -14.90625 22.515625 -14.53125 24.515625 -14.53125 C 26.191406 -14.53125 27.394531 -14.785156 28.125 -15.296875 C 28.851562 -15.816406 29.21875 -16.585938 29.21875 -17.609375 C 29.21875 -18.472656 28.863281 -19.21875 28.15625 -19.84375 C 27.457031 -20.46875 26.242188 -21.101562 24.515625 -21.75 L 17.53125 -24.1875 C 11.519531 -26.457031 7.203125 -29.132812 4.578125 -32.21875 C 1.960938 -35.3125 0.65625 -39.476562 0.65625 -44.71875 C 0.65625 -51.101562 2.75 -55.957031 6.9375 -59.28125 C 11.132812 -62.613281 18.128906 -64.28125 27.921875 -64.28125 C 32.628906 -64.28125 37.050781 -63.804688 41.1875 -62.859375 C 45.332031 -61.921875 48.675781 -60.664062 51.21875 -59.09375 L 51.21875 -44.5625 L 34.984375 -44.5625 C 34.984375 -47.269531 33.304688 -48.625 29.953125 -48.625 C 28.328125 -48.625 27.175781 -48.421875 26.5 -48.015625 C 25.820312 -47.609375 25.484375 -46.890625 25.484375 -45.859375 C 25.484375 -44.941406 25.875 -44.210938 26.65625 -43.671875 C 27.445312 -43.128906 28.734375 -42.5625 30.515625 -41.96875 L 37.578125 -39.53125 C 43.316406 -37.582031 47.5 -35.050781 50.125 -31.9375 C 52.75 -28.832031 54.0625 -24.757812 54.0625 -19.71875 C 54.0625 -12.851562 51.75 -7.660156 47.125 -4.140625 C 42.5 -0.617188 35.71875 1.140625 26.78125 1.140625 Z M 26.78125 1.140625 "/></g></g></g><g fill="#ff00ff" fill-opacity="1"><g transform="translate(948.353839, 432.021092)"><g><path d="M 1.625 0 L 1.625 -13.3125 L 5.6875 -13.3125 L 5.6875 -49.84375 L 1.625 -49.84375 L 1.625 -63.15625 L 56.421875 -63.15625 L 56.421875 -38.640625 L 38.234375 -38.640625 L 38.234375 -49.84375 L 28.40625 -49.84375 L 28.40625 -37.015625 L 35.546875 -37.015625 L 35.546875 -27.765625 L 28.40625 -27.765625 L 28.40625 -13.3125 L 38.234375 -13.3125 L 38.234375 -26.140625 L 56.421875 -26.140625 L 56.421875 0 Z M 1.625 0 "/></g></g></g><g fill="#ff00ff" fill-opacity="1"><g transform="translate(1006.22377, 432.021092)"><g><path d="M 33.125 1.140625 C 22.894531 1.140625 15.003906 -1.457031 9.453125 -6.65625 C 3.910156 -11.851562 1.140625 -20.160156 1.140625 -31.578125 C 1.140625 -53.378906 11.742188 -64.28125 32.953125 -64.28125 C 38.097656 -64.28125 42.875 -63.65625 47.28125 -62.40625 C 51.6875 -61.164062 54.972656 -59.789062 57.140625 -58.28125 L 57.140625 -37.984375 L 37.65625 -37.984375 L 37.65625 -43.828125 C 37.65625 -45.890625 37.195312 -47.40625 36.28125 -48.375 C 35.363281 -49.351562 33.984375 -49.84375 32.140625 -49.84375 C 30.304688 -49.84375 28.925781 -49.351562 28 -48.375 C 27.082031 -47.40625 26.625 -45.890625 26.625 -43.828125 L 26.625 -19.3125 C 26.625 -17.257812 27.082031 -15.742188 28 -14.765625 C 28.925781 -13.796875 30.304688 -13.3125 32.140625 -13.3125 C 33.984375 -13.3125 35.363281 -13.796875 36.28125 -14.765625 C 37.195312 -15.742188 37.65625 -17.257812 37.65625 -19.3125 L 37.65625 -25.890625 L 57.140625 -25.890625 L 57.140625 -4.875 C 54.921875 -3.351562 51.632812 -1.96875 47.28125 -0.71875 C 42.925781 0.519531 38.207031 1.140625 33.125 1.140625 Z M 33.125 1.140625 "/></g></g></g><g fill="#ff00ff" fill-opacity="1"><g transform="translate(1064.824201, 432.021092)"><g><path d="M 1.625 -13.3125 L 5.6875 -13.3125 L 5.6875 -49.84375 L 1.625 -49.84375 L 1.625 -63.15625 L 38.875 -63.15625 C 45.863281 -63.15625 51.195312 -61.71875 54.875 -58.84375 C 58.550781 -55.976562 60.390625 -51.328125 60.390625 -44.890625 C 60.390625 -41.265625 59.660156 -38.125 58.203125 -35.46875 C 56.742188 -32.820312 54.660156 -30.984375 51.953125 -29.953125 L 52.03125 -29.140625 C 57.226562 -28.328125 59.828125 -25.132812 59.828125 -19.5625 L 59.828125 -13.3125 L 63.640625 -13.3125 L 63.640625 0 L 37.90625 0 L 37.90625 -19.078125 C 37.90625 -21.179688 37.59375 -22.773438 36.96875 -23.859375 C 36.351562 -24.941406 35.378906 -25.671875 34.046875 -26.046875 C 32.722656 -26.429688 30.84375 -26.625 28.40625 -26.625 L 28.40625 -13.3125 L 33.765625 -13.3125 L 33.765625 0 L 1.625 0 Z M 32.796875 -36.53125 C 34.359375 -36.53125 35.53125 -36.945312 36.3125 -37.78125 C 37.101562 -38.625 37.5 -39.9375 37.5 -41.71875 L 37.5 -44.640625 C 37.5 -46.429688 37.101562 -47.742188 36.3125 -48.578125 C 35.53125 -49.421875 34.359375 -49.84375 32.796875 -49.84375 L 28.40625 -49.84375 L 28.40625 -36.53125 Z M 32.796875 -36.53125 "/></g></g></g><g fill="#ff00ff" fill-opacity="1"><g transform="translate(1129.755411, 432.021092)"><g><path d="M 1.625 0 L 1.625 -13.3125 L 5.6875 -13.3125 L 5.6875 -49.84375 L 1.625 -49.84375 L 1.625 -63.15625 L 56.421875 -63.15625 L 56.421875 -38.640625 L 38.234375 -38.640625 L 38.234375 -49.84375 L 28.40625 -49.84375 L 28.40625 -37.015625 L 35.546875 -37.015625 L 35.546875 -27.765625 L 28.40625 -27.765625 L 28.40625 -13.3125 L 38.234375 -13.3125 L 38.234375 -26.140625 L 56.421875 -26.140625 L 56.421875 0 Z M 1.625 0 "/></g></g></g><g fill="#ff00ff" fill-opacity="1"><g transform="translate(1187.625342, 432.021092)"><g><path d="M 62.171875 -43.515625 L 48.21875 -43.515625 L 48.21875 -49.84375 L 43.015625 -49.84375 L 43.015625 -13.3125 L 48.703125 -13.3125 L 48.703125 0 L 14.609375 0 L 14.609375 -13.3125 L 20.296875 -13.3125 L 20.296875 -49.84375 L 15.09375 -49.84375 L 15.09375 -43.515625 L 1.140625 -43.515625 L 1.140625 -63.15625 L 62.171875 -63.15625 Z M 62.171875 -43.515625 "/></g></g></g><g fill="#ff00ff" fill-opacity="1"><g transform="translate(1250.93323, 432.021092)"><g><path d="M 26.78125 1.140625 C 21.59375 1.140625 16.679688 0.691406 12.046875 -0.203125 C 7.421875 -1.097656 3.863281 -2.113281 1.375 -3.25 L 1.375 -19.3125 L 19.234375 -19.3125 C 19.234375 -17.632812 19.613281 -16.414062 20.375 -15.65625 C 21.132812 -14.90625 22.515625 -14.53125 24.515625 -14.53125 C 26.191406 -14.53125 27.394531 -14.785156 28.125 -15.296875 C 28.851562 -15.816406 29.21875 -16.585938 29.21875 -17.609375 C 29.21875 -18.472656 28.863281 -19.21875 28.15625 -19.84375 C 27.457031 -20.46875 26.242188 -21.101562 24.515625 -21.75 L 17.53125 -24.1875 C 11.519531 -26.457031 7.203125 -29.132812 4.578125 -32.21875 C 1.960938 -35.3125 0.65625 -39.476562 0.65625 -44.71875 C 0.65625 -51.101562 2.75 -55.957031 6.9375 -59.28125 C 11.132812 -62.613281 18.128906 -64.28125 27.921875 -64.28125 C 32.628906 -64.28125 37.050781 -63.804688 41.1875 -62.859375 C 45.332031 -61.921875 48.675781 -60.664062 51.21875 -59.09375 L 51.21875 -44.5625 L 34.984375 -44.5625 C 34.984375 -47.269531 33.304688 -48.625 29.953125 -48.625 C 28.328125 -48.625 27.175781 -48.421875 26.5 -48.015625 C 25.820312 -47.609375 25.484375 -46.890625 25.484375 -45.859375 C 25.484375 -44.941406 25.875 -44.210938 26.65625 -43.671875 C 27.445312 -43.128906 28.734375 -42.5625 30.515625 -41.96875 L 37.578125 -39.53125 C 43.316406 -37.582031 47.5 -35.050781 50.125 -31.9375 C 52.75 -28.832031 54.0625 -24.757812 54.0625 -19.71875 C 54.0625 -12.851562 51.75 -7.660156 47.125 -4.140625 C 42.5 -0.617188 35.71875 1.140625 26.78125 1.140625 Z M 26.78125 1.140625 "/></g></g></g><g fill="#00ffff" fill-opacity="1"><g transform="translate(134.336974, 432.728905)"><g><path d="M 26.78125 1.140625 C 21.59375 1.140625 16.679688 0.691406 12.046875 -0.203125 C 7.421875 -1.097656 3.863281 -2.113281 1.375 -3.25 L 1.375 -19.3125 L 19.234375 -19.3125 C 19.234375 -17.632812 19.613281 -16.414062 20.375 -15.65625 C 21.132812 -14.90625 22.515625 -14.53125 24.515625 -14.53125 C 26.191406 -14.53125 27.394531 -14.785156 28.125 -15.296875 C 28.851562 -15.816406 29.21875 -16.585938 29.21875 -17.609375 C 29.21875 -18.472656 28.863281 -19.21875 28.15625 -19.84375 C 27.457031 -20.46875 26.242188 -21.101562 24.515625 -21.75 L 17.53125 -24.1875 C 11.519531 -26.457031 7.203125 -29.132812 4.578125 -32.21875 C 1.960938 -35.3125 0.65625 -39.476562 0.65625 -44.71875 C 0.65625 -51.101562 2.75 -55.957031 6.9375 -59.28125 C 11.132812 -62.613281 18.128906 -64.28125 27.921875 -64.28125 C 32.628906 -64.28125 37.050781 -63.804688 41.1875 -62.859375 C 45.332031 -61.921875 48.675781 -60.664062 51.21875 -59.09375 L 51.21875 -44.5625 L 34.984375 -44.5625 C 34.984375 -47.269531 33.304688 -48.625 29.953125 -48.625 C 28.328125 -48.625 27.175781 -48.421875 26.5 -48.015625 C 25.820312 -47.609375 25.484375 -46.890625 25.484375 -45.859375 C 25.484375 -44.941406 25.875 -44.210938 26.65625 -43.671875 C 27.445312 -43.128906 28.734375 -42.5625 30.515625 -41.96875 L 37.578125 -39.53125 C 43.316406 -37.582031 47.5 -35.050781 50.125 -31.9375 C 52.75 -28.832031 54.0625 -24.757812 54.0625 -19.71875 C 54.0625 -12.851562 51.75 -7.660156 47.125 -4.140625 C 42.5 -0.617188 35.71875 1.140625 26.78125 1.140625 Z M 26.78125 1.140625 "/></g></g></g><g fill="#00ffff" fill-opacity="1"><g transform="translate(189.041504, 432.728905)"><g><path d="M 62.171875 -43.515625 L 48.21875 -43.515625 L 48.21875 -49.84375 L 43.015625 -49.84375 L 43.015625 -13.3125 L 48.703125 -13.3125 L 48.703125 0 L 14.609375 0 L 14.609375 -13.3125 L 20.296875 -13.3125 L 20.296875 -49.84375 L 15.09375 -49.84375 L 15.09375 -43.515625 L 1.140625 -43.515625 L 1.140625 -63.15625 L 62.171875 -63.15625 Z M 62.171875 -43.515625 "/></g></g></g><g fill="#00ffff" fill-opacity="1"><g transform="translate(252.349427, 432.728905)"><g><path d="M 32.140625 1.140625 C 22.242188 1.140625 14.601562 -1.457031 9.21875 -6.65625 C 3.832031 -11.851562 1.140625 -20.160156 1.140625 -31.578125 C 1.140625 -42.992188 3.832031 -51.296875 9.21875 -56.484375 C 14.601562 -61.679688 22.242188 -64.28125 32.140625 -64.28125 C 42.046875 -64.28125 49.691406 -61.679688 55.078125 -56.484375 C 60.460938 -51.296875 63.15625 -42.992188 63.15625 -31.578125 C 63.15625 -20.160156 60.460938 -11.851562 55.078125 -6.65625 C 49.691406 -1.457031 42.046875 1.140625 32.140625 1.140625 Z M 32.140625 -13.3125 C 33.984375 -13.3125 35.363281 -13.796875 36.28125 -14.765625 C 37.195312 -15.742188 37.65625 -17.257812 37.65625 -19.3125 L 37.65625 -43.828125 C 37.65625 -45.890625 37.195312 -47.40625 36.28125 -48.375 C 35.363281 -49.351562 33.984375 -49.84375 32.140625 -49.84375 C 30.304688 -49.84375 28.925781 -49.351562 28 -48.375 C 27.082031 -47.40625 26.625 -45.890625 26.625 -43.828125 L 26.625 -19.3125 C 26.625 -17.207031 27.082031 -15.679688 28 -14.734375 C 28.925781 -13.785156 30.304688 -13.3125 32.140625 -13.3125 Z M 32.140625 -13.3125 "/></g></g></g><g fill="#00ffff" fill-opacity="1"><g transform="translate(316.631311, 432.728905)"><g><path d="M 33.125 1.140625 C 22.894531 1.140625 15.003906 -1.457031 9.453125 -6.65625 C 3.910156 -11.851562 1.140625 -20.160156 1.140625 -31.578125 C 1.140625 -53.378906 11.742188 -64.28125 32.953125 -64.28125 C 38.097656 -64.28125 42.875 -63.65625 47.28125 -62.40625 C 51.6875 -61.164062 54.972656 -59.789062 57.140625 -58.28125 L 57.140625 -37.984375 L 37.65625 -37.984375 L 37.65625 -43.828125 C 37.65625 -45.890625 37.195312 -47.40625 36.28125 -48.375 C 35.363281 -49.351562 33.984375 -49.84375 32.140625 -49.84375 C 30.304688 -49.84375 28.925781 -49.351562 28 -48.375 C 27.082031 -47.40625 26.625 -45.890625 26.625 -43.828125 L 26.625 -19.3125 C 26.625 -17.257812 27.082031 -15.742188 28 -14.765625 C 28.925781 -13.796875 30.304688 -13.3125 32.140625 -13.3125 C 33.984375 -13.3125 35.363281 -13.796875 36.28125 -14.765625 C 37.195312 -15.742188 37.65625 -17.257812 37.65625 -19.3125 L 37.65625 -25.890625 L 57.140625 -25.890625 L 57.140625 -4.875 C 54.921875 -3.351562 51.632812 -1.96875 47.28125 -0.71875 C 42.925781 0.519531 38.207031 1.140625 33.125 1.140625 Z M 33.125 1.140625 "/></g></g></g><g fill="#00ffff" fill-opacity="1"><g transform="translate(375.231706, 432.728905)"><g><path d="M 62.421875 -13.3125 L 66.484375 -13.3125 L 66.484375 0 L 44.3125 0 L 32.140625 -25.15625 L 28.40625 -22.078125 L 28.40625 -13.3125 L 32.3125 -13.3125 L 32.3125 0 L 1.625 0 L 1.625 -13.3125 L 5.6875 -13.3125 L 5.6875 -49.84375 L 1.625 -49.84375 L 1.625 -63.15625 L 32.3125 -63.15625 L 32.3125 -49.84375 L 28.40625 -49.84375 L 28.40625 -39.125 L 40.984375 -49.84375 L 35.875 -49.84375 L 35.875 -63.15625 L 66.078125 -63.15625 L 66.078125 -49.84375 L 62.015625 -49.84375 L 48.453125 -38.640625 Z M 62.421875 -13.3125 "/></g></g></g><g fill="#00ffff" fill-opacity="1"><g transform="translate(443.003661, 432.728905)"><g/></g></g><g fill="#00ffff" fill-opacity="1"><g transform="translate(467.352865, 432.728905)"><g><path d="M 91.15625 -49.84375 L 87.09375 -49.84375 L 87.09375 -13.3125 L 91.15625 -13.3125 L 91.15625 0 L 60.46875 0 L 60.46875 -13.3125 L 64.375 -13.3125 L 64.375 -41.71875 L 50.5625 0 L 38.5625 0 L 24.359375 -41.3125 L 24.359375 -13.3125 L 28.25 -13.3125 L 28.25 0 L 1.625 0 L 1.625 -13.3125 L 5.6875 -13.3125 L 5.6875 -49.84375 L 1.625 -49.84375 L 1.625 -63.15625 L 38.796875 -63.15625 L 47.234375 -37.828125 L 55.359375 -63.15625 L 91.15625 -63.15625 Z M 91.15625 -49.84375 "/></g></g></g><g fill="#00ffff" fill-opacity="1"><g transform="translate(560.123314, 432.728905)"><g><path d="M 61.203125 -13.3125 L 64.453125 -13.3125 L 64.453125 0 L 32.625 0 L 32.625 -13.3125 L 37.5 -13.3125 L 36.203125 -19.8125 L 25.15625 -19.8125 L 23.859375 -13.3125 L 28.734375 -13.3125 L 28.734375 0 L 0.96875 0 L 0.96875 -13.3125 L 4.21875 -13.3125 L 17.9375 -63.15625 L 47.484375 -63.15625 Z M 26.953125 -28.40625 L 34.421875 -28.40625 L 31.09375 -44.5625 L 30.28125 -44.5625 Z M 26.953125 -28.40625 "/></g></g></g><g fill="#00ffff" fill-opacity="1"><g transform="translate(625.541493, 432.728905)"><g><path d="M 1.625 -13.3125 L 5.6875 -13.3125 L 5.6875 -49.84375 L 1.625 -49.84375 L 1.625 -63.15625 L 38.875 -63.15625 C 45.863281 -63.15625 51.195312 -61.71875 54.875 -58.84375 C 58.550781 -55.976562 60.390625 -51.328125 60.390625 -44.890625 C 60.390625 -41.265625 59.660156 -38.125 58.203125 -35.46875 C 56.742188 -32.820312 54.660156 -30.984375 51.953125 -29.953125 L 52.03125 -29.140625 C 57.226562 -28.328125 59.828125 -25.132812 59.828125 -19.5625 L 59.828125 -13.3125 L 63.640625 -13.3125 L 63.640625 0 L 37.90625 0 L 37.90625 -19.078125 C 37.90625 -21.179688 37.59375 -22.773438 36.96875 -23.859375 C 36.351562 -24.941406 35.378906 -25.671875 34.046875 -26.046875 C 32.722656 -26.429688 30.84375 -26.625 28.40625 -26.625 L 28.40625 -13.3125 L 33.765625 -13.3125 L 33.765625 0 L 1.625 0 Z M 32.796875 -36.53125 C 34.359375 -36.53125 35.53125 -36.945312 36.3125 -37.78125 C 37.101562 -38.625 37.5 -39.9375 37.5 -41.71875 L 37.5 -44.640625 C 37.5 -46.429688 37.101562 -47.742188 36.3125 -48.578125 C 35.53125 -49.421875 34.359375 -49.84375 32.796875 -49.84375 L 28.40625 -49.84375 L 28.40625 -36.53125 Z M 32.796875 -36.53125 "/></g></g></g><g fill="#00ffff" fill-opacity="1"><g transform="translate(690.472703, 432.728905)"><g><path d="M 62.421875 -13.3125 L 66.484375 -13.3125 L 66.484375 0 L 44.3125 0 L 32.140625 -25.15625 L 28.40625 -22.078125 L 28.40625 -13.3125 L 32.3125 -13.3125 L 32.3125 0 L 1.625 0 L 1.625 -13.3125 L 5.6875 -13.3125 L 5.6875 -49.84375 L 1.625 -49.84375 L 1.625 -63.15625 L 32.3125 -63.15625 L 32.3125 -49.84375 L 28.40625 -49.84375 L 28.40625 -39.125 L 40.984375 -49.84375 L 35.875 -49.84375 L 35.875 -63.15625 L 66.078125 -63.15625 L 66.078125 -49.84375 L 62.015625 -49.84375 L 48.453125 -38.640625 Z M 62.421875 -13.3125 "/></g></g></g><g fill="#00ffff" fill-opacity="1"><g transform="translate(758.244657, 432.728905)"><g><path d="M 1.625 0 L 1.625 -13.3125 L 5.6875 -13.3125 L 5.6875 -49.84375 L 1.625 -49.84375 L 1.625 -63.15625 L 56.421875 -63.15625 L 56.421875 -38.640625 L 38.234375 -38.640625 L 38.234375 -49.84375 L 28.40625 -49.84375 L 28.40625 -37.015625 L 35.546875 -37.015625 L 35.546875 -27.765625 L 28.40625 -27.765625 L 28.40625 -13.3125 L 38.234375 -13.3125 L 38.234375 -26.140625 L 56.421875 -26.140625 L 56.421875 0 Z M 1.625 0 "/></g></g></g><g fill="#00ffff" fill-opacity="1"><g transform="translate(816.114588, 432.728905)"><g><path d="M 62.171875 -43.515625 L 48.21875 -43.515625 L 48.21875 -49.84375 L 43.015625 -49.84375 L 43.015625 -13.3125 L 48.703125 -13.3125 L 48.703125 0 L 14.609375 0 L 14.609375 -13.3125 L 20.296875 -13.3125 L 20.296875 -49.84375 L 15.09375 -49.84375 L 15.09375 -43.515625 L 1.140625 -43.515625 L 1.140625 -63.15625 L 62.171875 -63.15625 Z M 62.171875 -43.515625 "/></g></g></g><g fill="#00ffff" fill-opacity="1"><g transform="translate(879.422522, 432.728905)"><g/></g></g><g fill="#00ffff" fill-opacity="1"><g transform="translate(903.771749, 432.728905)"><g><path d="M 26.78125 1.140625 C 21.59375 1.140625 16.679688 0.691406 12.046875 -0.203125 C 7.421875 -1.097656 3.863281 -2.113281 1.375 -3.25 L 1.375 -19.3125 L 19.234375 -19.3125 C 19.234375 -17.632812 19.613281 -16.414062 20.375 -15.65625 C 21.132812 -14.90625 22.515625 -14.53125 24.515625 -14.53125 C 26.191406 -14.53125 27.394531 -14.785156 28.125 -15.296875 C 28.851562 -15.816406 29.21875 -16.585938 29.21875 -17.609375 C 29.21875 -18.472656 28.863281 -19.21875 28.15625 -19.84375 C 27.457031 -20.46875 26.242188 -21.101562 24.515625 -21.75 L 17.53125 -24.1875 C 11.519531 -26.457031 7.203125 -29.132812 4.578125 -32.21875 C 1.960938 -35.3125 0.65625 -39.476562 0.65625 -44.71875 C 0.65625 -51.101562 2.75 -55.957031 6.9375 -59.28125 C 11.132812 -62.613281 18.128906 -64.28125 27.921875 -64.28125 C 32.628906 -64.28125 37.050781 -63.804688 41.1875 -62.859375 C 45.332031 -61.921875 48.675781 -60.664062 51.21875 -59.09375 L 51.21875 -44.5625 L 34.984375 -44.5625 C 34.984375 -47.269531 33.304688 -48.625 29.953125 -48.625 C 28.328125 -48.625 27.175781 -48.421875 26.5 -48.015625 C 25.820312 -47.609375 25.484375 -46.890625 25.484375 -45.859375 C 25.484375 -44.941406 25.875 -44.210938 26.65625 -43.671875 C 27.445312 -43.128906 28.734375 -42.5625 30.515625 -41.96875 L 37.578125 -39.53125 C 43.316406 -37.582031 47.5 -35.050781 50.125 -31.9375 C 52.75 -28.832031 54.0625 -24.757812 54.0625 -19.71875 C 54.0625 -12.851562 51.75 -7.660156 47.125 -4.140625 C 42.5 -0.617188 35.71875 1.140625 26.78125 1.140625 Z M 26.78125 1.140625 "/></g></g></g><g fill="#00ffff" fill-opacity="1"><g transform="translate(958.476244, 432.728905)"><g><path d="M 1.625 0 L 1.625 -13.3125 L 5.6875 -13.3125 L 5.6875 -49.84375 L 1.625 -49.84375 L 1.625 -63.15625 L 56.421875 -63.15625 L 56.421875 -38.640625 L 38.234375 -38.640625 L 38.234375 -49.84375 L 28.40625 -49.84375 L 28.40625 -37.015625 L 35.546875 -37.015625 L 35.546875 -27.765625 L 28.40625 -27.765625 L 28.40625 -13.3125 L 38.234375 -13.3125 L 38.234375 -26.140625 L 56.421875 -26.140625 L 56.421875 0 Z M 1.625 0 "/></g></g></g><g fill="#00ffff" fill-opacity="1"><g transform="translate(1016.346175, 432.728905)"><g><path d="M 33.125 1.140625 C 22.894531 1.140625 15.003906 -1.457031 9.453125 -6.65625 C 3.910156 -11.851562 1.140625 -20.160156 1.140625 -31.578125 C 1.140625 -53.378906 11.742188 -64.28125 32.953125 -64.28125 C 38.097656 -64.28125 42.875 -63.65625 47.28125 -62.40625 C 51.6875 -61.164062 54.972656 -59.789062 57.140625 -58.28125 L 57.140625 -37.984375 L 37.65625 -37.984375 L 37.65625 -43.828125 C 37.65625 -45.890625 37.195312 -47.40625 36.28125 -48.375 C 35.363281 -49.351562 33.984375 -49.84375 32.140625 -49.84375 C 30.304688 -49.84375 28.925781 -49.351562 28 -48.375 C 27.082031 -47.40625 26.625 -45.890625 26.625 -43.828125 L 26.625 -19.3125 C 26.625 -17.257812 27.082031 -15.742188 28 -14.765625 C 28.925781 -13.796875 30.304688 -13.3125 32.140625 -13.3125 C 33.984375 -13.3125 35.363281 -13.796875 36.28125 -14.765625 C 37.195312 -15.742188 37.65625 -17.257812 37.65625 -19.3125 L 37.65625 -25.890625 L 57.140625 -25.890625 L 57.140625 -4.875 C 54.921875 -3.351562 51.632812 -1.96875 47.28125 -0.71875 C 42.925781 0.519531 38.207031 1.140625 33.125 1.140625 Z M 33.125 1.140625 "/></g></g></g><g fill="#00ffff" fill-opacity="1"><g transform="translate(1074.946606, 432.728905)"><g><path d="M 1.625 -13.3125 L 5.6875 -13.3125 L 5.6875 -49.84375 L 1.625 -49.84375 L 1.625 -63.15625 L 38.875 -63.15625 C 45.863281 -63.15625 51.195312 -61.71875 54.875 -58.84375 C 58.550781 -55.976562 60.390625 -51.328125 60.390625 -44.890625 C 60.390625 -41.265625 59.660156 -38.125 58.203125 -35.46875 C 56.742188 -32.820312 54.660156 -30.984375 51.953125 -29.953125 L 52.03125 -29.140625 C 57.226562 -28.328125 59.828125 -25.132812 59.828125 -19.5625 L 59.828125 -13.3125 L 63.640625 -13.3125 L 63.640625 0 L 37.90625 0 L 37.90625 -19.078125 C 37.90625 -21.179688 37.59375 -22.773438 36.96875 -23.859375 C 36.351562 -24.941406 35.378906 -25.671875 34.046875 -26.046875 C 32.722656 -26.429688 30.84375 -26.625 28.40625 -26.625 L 28.40625 -13.3125 L 33.765625 -13.3125 L 33.765625 0 L 1.625 0 Z M 32.796875 -36.53125 C 34.359375 -36.53125 35.53125 -36.945312 36.3125 -37.78125 C 37.101562 -38.625 37.5 -39.9375 37.5 -41.71875 L 37.5 -44.640625 C 37.5 -46.429688 37.101562 -47.742188 36.3125 -48.578125 C 35.53125 -49.421875 34.359375 -49.84375 32.796875 -49.84375 L 28.40625 -49.84375 L 28.40625 -36.53125 Z M 32.796875 -36.53125 "/></g></g></g><g fill="#00ffff" fill-opacity="1"><g transform="translate(1139.877816, 432.728905)"><g><path d="M 1.625 0 L 1.625 -13.3125 L 5.6875 -13.3125 L 5.6875 -49.84375 L 1.625 -49.84375 L 1.625 -63.15625 L 56.421875 -63.15625 L 56.421875 -38.640625 L 38.234375 -38.640625 L 38.234375 -49.84375 L 28.40625 -49.84375 L 28.40625 -37.015625 L 35.546875 -37.015625 L 35.546875 -27.765625 L 28.40625 -27.765625 L 28.40625 -13.3125 L 38.234375 -13.3125 L 38.234375 -26.140625 L 56.421875 -26.140625 L 56.421875 0 Z M 1.625 0 "/></g></g></g><g fill="#00ffff" fill-opacity="1"><g transform="translate(1197.747747, 432.728905)"><g><path d="M 62.171875 -43.515625 L 48.21875 -43.515625 L 48.21875 -49.84375 L 43.015625 -49.84375 L 43.015625 -13.3125 L 48.703125 -13.3125 L 48.703125 0 L 14.609375 0 L 14.609375 -13.3125 L 20.296875 -13.3125 L 20.296875 -49.84375 L 15.09375 -49.84375 L 15.09375 -43.515625 L 1.140625 -43.515625 L 1.140625 -63.15625 L 62.171875 -63.15625 Z M 62.171875 -43.515625 "/></g></g></g><g fill="#00ffff" fill-opacity="1"><g transform="translate(1261.055635, 432.728905)"><g><path d="M 26.78125 1.140625 C 21.59375 1.140625 16.679688 0.691406 12.046875 -0.203125 C 7.421875 -1.097656 3.863281 -2.113281 1.375 -3.25 L 1.375 -19.3125 L 19.234375 -19.3125 C 19.234375 -17.632812 19.613281 -16.414062 20.375 -15.65625 C 21.132812 -14.90625 22.515625 -14.53125 24.515625 -14.53125 C 26.191406 -14.53125 27.394531 -14.785156 28.125 -15.296875 C 28.851562 -15.816406 29.21875 -16.585938 29.21875 -17.609375 C 29.21875 -18.472656 28.863281 -19.21875 28.15625 -19.84375 C 27.457031 -20.46875 26.242188 -21.101562 24.515625 -21.75 L 17.53125 -24.1875 C 11.519531 -26.457031 7.203125 -29.132812 4.578125 -32.21875 C 1.960938 -35.3125 0.65625 -39.476562 0.65625 -44.71875 C 0.65625 -51.101562 2.75 -55.957031 6.9375 -59.28125 C 11.132812 -62.613281 18.128906 -64.28125 27.921875 -64.28125 C 32.628906 -64.28125 37.050781 -63.804688 41.1875 -62.859375 C 45.332031 -61.921875 48.675781 -60.664062 51.21875 -59.09375 L 51.21875 -44.5625 L 34.984375 -44.5625 C 34.984375 -47.269531 33.304688 -48.625 29.953125 -48.625 C 28.328125 -48.625 27.175781 -48.421875 26.5 -48.015625 C 25.820312 -47.609375 25.484375 -46.890625 25.484375 -45.859375 C 25.484375 -44.941406 25.875 -44.210938 26.65625 -43.671875 C 27.445312 -43.128906 28.734375 -42.5625 30.515625 -41.96875 L 37.578125 -39.53125 C 43.316406 -37.582031 47.5 -35.050781 50.125 -31.9375 C 52.75 -28.832031 54.0625 -24.757812 54.0625 -19.71875 C 54.0625 -12.851562 51.75 -7.660156 47.125 -4.140625 C 42.5 -0.617188 35.71875 1.140625 26.78125 1.140625 Z M 26.78125 1.140625 "/></g></g></g><g fill="#046307" fill-opacity="1"><g transform="translate(129.27577, 432.374998)"><g><path d="M 26.78125 1.140625 C 21.59375 1.140625 16.679688 0.691406 12.046875 -0.203125 C 7.421875 -1.097656 3.863281 -2.113281 1.375 -3.25 L 1.375 -19.3125 L 19.234375 -19.3125 C 19.234375 -17.632812 19.613281 -16.414062 20.375 -15.65625 C 21.132812 -14.90625 22.515625 -14.53125 24.515625 -14.53125 C 26.191406 -14.53125 27.394531 -14.785156 28.125 -15.296875 C 28.851562 -15.816406 29.21875 -16.585938 29.21875 -17.609375 C 29.21875 -18.472656 28.863281 -19.21875 28.15625 -19.84375 C 27.457031 -20.46875 26.242188 -21.101562 24.515625 -21.75 L 17.53125 -24.1875 C 11.519531 -26.457031 7.203125 -29.132812 4.578125 -32.21875 C 1.960938 -35.3125 0.65625 -39.476562 0.65625 -44.71875 C 0.65625 -51.101562 2.75 -55.957031 6.9375 -59.28125 C 11.132812 -62.613281 18.128906 -64.28125 27.921875 -64.28125 C 32.628906 -64.28125 37.050781 -63.804688 41.1875 -62.859375 C 45.332031 -61.921875 48.675781 -60.664062 51.21875 -59.09375 L 51.21875 -44.5625 L 34.984375 -44.5625 C 34.984375 -47.269531 33.304688 -48.625 29.953125 -48.625 C 28.328125 -48.625 27.175781 -48.421875 26.5 -48.015625 C 25.820312 -47.609375 25.484375 -46.890625 25.484375 -45.859375 C 25.484375 -44.941406 25.875 -44.210938 26.65625 -43.671875 C 27.445312 -43.128906 28.734375 -42.5625 30.515625 -41.96875 L 37.578125 -39.53125 C 43.316406 -37.582031 47.5 -35.050781 50.125 -31.9375 C 52.75 -28.832031 54.0625 -24.757812 54.0625 -19.71875 C 54.0625 -12.851562 51.75 -7.660156 47.125 -4.140625 C 42.5 -0.617188 35.71875 1.140625 26.78125 1.140625 Z M 26.78125 1.140625 "/></g></g></g><g fill="#046307" fill-opacity="1"><g transform="translate(183.9803, 432.374998)"><g><path d="M 62.171875 -43.515625 L 48.21875 -43.515625 L 48.21875 -49.84375 L 43.015625 -49.84375 L 43.015625 -13.3125 L 48.703125 -13.3125 L 48.703125 0 L 14.609375 0 L 14.609375 -13.3125 L 20.296875 -13.3125 L 20.296875 -49.84375 L 15.09375 -49.84375 L 15.09375 -43.515625 L 1.140625 -43.515625 L 1.140625 -63.15625 L 62.171875 -63.15625 Z M 62.171875 -43.515625 "/></g></g></g><g fill="#046307" fill-opacity="1"><g transform="translate(247.288223, 432.374998)"><g><path d="M 32.140625 1.140625 C 22.242188 1.140625 14.601562 -1.457031 9.21875 -6.65625 C 3.832031 -11.851562 1.140625 -20.160156 1.140625 -31.578125 C 1.140625 -42.992188 3.832031 -51.296875 9.21875 -56.484375 C 14.601562 -61.679688 22.242188 -64.28125 32.140625 -64.28125 C 42.046875 -64.28125 49.691406 -61.679688 55.078125 -56.484375 C 60.460938 -51.296875 63.15625 -42.992188 63.15625 -31.578125 C 63.15625 -20.160156 60.460938 -11.851562 55.078125 -6.65625 C 49.691406 -1.457031 42.046875 1.140625 32.140625 1.140625 Z M 32.140625 -13.3125 C 33.984375 -13.3125 35.363281 -13.796875 36.28125 -14.765625 C 37.195312 -15.742188 37.65625 -17.257812 37.65625 -19.3125 L 37.65625 -43.828125 C 37.65625 -45.890625 37.195312 -47.40625 36.28125 -48.375 C 35.363281 -49.351562 33.984375 -49.84375 32.140625 -49.84375 C 30.304688 -49.84375 28.925781 -49.351562 28 -48.375 C 27.082031 -47.40625 26.625 -45.890625 26.625 -43.828125 L 26.625 -19.3125 C 26.625 -17.207031 27.082031 -15.679688 28 -14.734375 C 28.925781 -13.785156 30.304688 -13.3125 32.140625 -13.3125 Z M 32.140625 -13.3125 "/></g></g></g><g fill="#046307" fill-opacity="1"><g transform="translate(311.570107, 432.374998)"><g><path d="M 33.125 1.140625 C 22.894531 1.140625 15.003906 -1.457031 9.453125 -6.65625 C 3.910156 -11.851562 1.140625 -20.160156 1.140625 -31.578125 C 1.140625 -53.378906 11.742188 -64.28125 32.953125 -64.28125 C 38.097656 -64.28125 42.875 -63.65625 47.28125 -62.40625 C 51.6875 -61.164062 54.972656 -59.789062 57.140625 -58.28125 L 57.140625 -37.984375 L 37.65625 -37.984375 L 37.65625 -43.828125 C 37.65625 -45.890625 37.195312 -47.40625 36.28125 -48.375 C 35.363281 -49.351562 33.984375 -49.84375 32.140625 -49.84375 C 30.304688 -49.84375 28.925781 -49.351562 28 -48.375 C 27.082031 -47.40625 26.625 -45.890625 26.625 -43.828125 L 26.625 -19.3125 C 26.625 -17.257812 27.082031 -15.742188 28 -14.765625 C 28.925781 -13.796875 30.304688 -13.3125 32.140625 -13.3125 C 33.984375 -13.3125 35.363281 -13.796875 36.28125 -14.765625 C 37.195312 -15.742188 37.65625 -17.257812 37.65625 -19.3125 L 37.65625 -25.890625 L 57.140625 -25.890625 L 57.140625 -4.875 C 54.921875 -3.351562 51.632812 -1.96875 47.28125 -0.71875 C 42.925781 0.519531 38.207031 1.140625 33.125 1.140625 Z M 33.125 1.140625 "/></g></g></g><g fill="#046307" fill-opacity="1"><g transform="translate(370.170503, 432.374998)"><g><path d="M 62.421875 -13.3125 L 66.484375 -13.3125 L 66.484375 0 L 44.3125 0 L 32.140625 -25.15625 L 28.40625 -22.078125 L 28.40625 -13.3125 L 32.3125 -13.3125 L 32.3125 0 L 1.625 0 L 1.625 -13.3125 L 5.6875 -13.3125 L 5.6875 -49.84375 L 1.625 -49.84375 L 1.625 -63.15625 L 32.3125 -63.15625 L 32.3125 -49.84375 L 28.40625 -49.84375 L 28.40625 -39.125 L 40.984375 -49.84375 L 35.875 -49.84375 L 35.875 -63.15625 L 66.078125 -63.15625 L 66.078125 -49.84375 L 62.015625 -49.84375 L 48.453125 -38.640625 Z M 62.421875 -13.3125 "/></g></g></g><g fill="#046307" fill-opacity="1"><g transform="translate(437.942457, 432.374998)"><g/></g></g><g fill="#046307" fill-opacity="1"><g transform="translate(462.291661, 432.374998)"><g><path d="M 91.15625 -49.84375 L 87.09375 -49.84375 L 87.09375 -13.3125 L 91.15625 -13.3125 L 91.15625 0 L 60.46875 0 L 60.46875 -13.3125 L 64.375 -13.3125 L 64.375 -41.71875 L 50.5625 0 L 38.5625 0 L 24.359375 -41.3125 L 24.359375 -13.3125 L 28.25 -13.3125 L 28.25 0 L 1.625 0 L 1.625 -13.3125 L 5.6875 -13.3125 L 5.6875 -49.84375 L 1.625 -49.84375 L 1.625 -63.15625 L 38.796875 -63.15625 L 47.234375 -37.828125 L 55.359375 -63.15625 L 91.15625 -63.15625 Z M 91.15625 -49.84375 "/></g></g></g><g fill="#046307" fill-opacity="1"><g transform="translate(555.06211, 432.374998)"><g><path d="M 61.203125 -13.3125 L 64.453125 -13.3125 L 64.453125 0 L 32.625 0 L 32.625 -13.3125 L 37.5 -13.3125 L 36.203125 -19.8125 L 25.15625 -19.8125 L 23.859375 -13.3125 L 28.734375 -13.3125 L 28.734375 0 L 0.96875 0 L 0.96875 -13.3125 L 4.21875 -13.3125 L 17.9375 -63.15625 L 47.484375 -63.15625 Z M 26.953125 -28.40625 L 34.421875 -28.40625 L 31.09375 -44.5625 L 30.28125 -44.5625 Z M 26.953125 -28.40625 "/></g></g></g><g fill="#046307" fill-opacity="1"><g transform="translate(620.480289, 432.374998)"><g><path d="M 1.625 -13.3125 L 5.6875 -13.3125 L 5.6875 -49.84375 L 1.625 -49.84375 L 1.625 -63.15625 L 38.875 -63.15625 C 45.863281 -63.15625 51.195312 -61.71875 54.875 -58.84375 C 58.550781 -55.976562 60.390625 -51.328125 60.390625 -44.890625 C 60.390625 -41.265625 59.660156 -38.125 58.203125 -35.46875 C 56.742188 -32.820312 54.660156 -30.984375 51.953125 -29.953125 L 52.03125 -29.140625 C 57.226562 -28.328125 59.828125 -25.132812 59.828125 -19.5625 L 59.828125 -13.3125 L 63.640625 -13.3125 L 63.640625 0 L 37.90625 0 L 37.90625 -19.078125 C 37.90625 -21.179688 37.59375 -22.773438 36.96875 -23.859375 C 36.351562 -24.941406 35.378906 -25.671875 34.046875 -26.046875 C 32.722656 -26.429688 30.84375 -26.625 28.40625 -26.625 L 28.40625 -13.3125 L 33.765625 -13.3125 L 33.765625 0 L 1.625 0 Z M 32.796875 -36.53125 C 34.359375 -36.53125 35.53125 -36.945312 36.3125 -37.78125 C 37.101562 -38.625 37.5 -39.9375 37.5 -41.71875 L 37.5 -44.640625 C 37.5 -46.429688 37.101562 -47.742188 36.3125 -48.578125 C 35.53125 -49.421875 34.359375 -49.84375 32.796875 -49.84375 L 28.40625 -49.84375 L 28.40625 -36.53125 Z M 32.796875 -36.53125 "/></g></g></g><g fill="#046307" fill-opacity="1"><g transform="translate(685.411499, 432.374998)"><g><path d="M 62.421875 -13.3125 L 66.484375 -13.3125 L 66.484375 0 L 44.3125 0 L 32.140625 -25.15625 L 28.40625 -22.078125 L 28.40625 -13.3125 L 32.3125 -13.3125 L 32.3125 0 L 1.625 0 L 1.625 -13.3125 L 5.6875 -13.3125 L 5.6875 -49.84375 L 1.625 -49.84375 L 1.625 -63.15625 L 32.3125 -63.15625 L 32.3125 -49.84375 L 28.40625 -49.84375 L 28.40625 -39.125 L 40.984375 -49.84375 L 35.875 -49.84375 L 35.875 -63.15625 L 66.078125 -63.15625 L 66.078125 -49.84375 L 62.015625 -49.84375 L 48.453125 -38.640625 Z M 62.421875 -13.3125 "/></g></g></g><g fill="#046307" fill-opacity="1"><g transform="translate(753.183453, 432.374998)"><g><path d="M 1.625 0 L 1.625 -13.3125 L 5.6875 -13.3125 L 5.6875 -49.84375 L 1.625 -49.84375 L 1.625 -63.15625 L 56.421875 -63.15625 L 56.421875 -38.640625 L 38.234375 -38.640625 L 38.234375 -49.84375 L 28.40625 -49.84375 L 28.40625 -37.015625 L 35.546875 -37.015625 L 35.546875 -27.765625 L 28.40625 -27.765625 L 28.40625 -13.3125 L 38.234375 -13.3125 L 38.234375 -26.140625 L 56.421875 -26.140625 L 56.421875 0 Z M 1.625 0 "/></g></g></g><g fill="#046307" fill-opacity="1"><g transform="translate(811.053385, 432.374998)"><g><path d="M 62.171875 -43.515625 L 48.21875 -43.515625 L 48.21875 -49.84375 L 43.015625 -49.84375 L 43.015625 -13.3125 L 48.703125 -13.3125 L 48.703125 0 L 14.609375 0 L 14.609375 -13.3125 L 20.296875 -13.3125 L 20.296875 -49.84375 L 15.09375 -49.84375 L 15.09375 -43.515625 L 1.140625 -43.515625 L 1.140625 -63.15625 L 62.171875 -63.15625 Z M 62.171875 -43.515625 "/></g></g></g><g fill="#046307" fill-opacity="1"><g transform="translate(874.361319, 432.374998)"><g/></g></g><g fill="#046307" fill-opacity="1"><g transform="translate(898.710545, 432.374998)"><g><path d="M 26.78125 1.140625 C 21.59375 1.140625 16.679688 0.691406 12.046875 -0.203125 C 7.421875 -1.097656 3.863281 -2.113281 1.375 -3.25 L 1.375 -19.3125 L 19.234375 -19.3125 C 19.234375 -17.632812 19.613281 -16.414062 20.375 -15.65625 C 21.132812 -14.90625 22.515625 -14.53125 24.515625 -14.53125 C 26.191406 -14.53125 27.394531 -14.785156 28.125 -15.296875 C 28.851562 -15.816406 29.21875 -16.585938 29.21875 -17.609375 C 29.21875 -18.472656 28.863281 -19.21875 28.15625 -19.84375 C 27.457031 -20.46875 26.242188 -21.101562 24.515625 -21.75 L 17.53125 -24.1875 C 11.519531 -26.457031 7.203125 -29.132812 4.578125 -32.21875 C 1.960938 -35.3125 0.65625 -39.476562 0.65625 -44.71875 C 0.65625 -51.101562 2.75 -55.957031 6.9375 -59.28125 C 11.132812 -62.613281 18.128906 -64.28125 27.921875 -64.28125 C 32.628906 -64.28125 37.050781 -63.804688 41.1875 -62.859375 C 45.332031 -61.921875 48.675781 -60.664062 51.21875 -59.09375 L 51.21875 -44.5625 L 34.984375 -44.5625 C 34.984375 -47.269531 33.304688 -48.625 29.953125 -48.625 C 28.328125 -48.625 27.175781 -48.421875 26.5 -48.015625 C 25.820312 -47.609375 25.484375 -46.890625 25.484375 -45.859375 C 25.484375 -44.941406 25.875 -44.210938 26.65625 -43.671875 C 27.445312 -43.128906 28.734375 -42.5625 30.515625 -41.96875 L 37.578125 -39.53125 C 43.316406 -37.582031 47.5 -35.050781 50.125 -31.9375 C 52.75 -28.832031 54.0625 -24.757812 54.0625 -19.71875 C 54.0625 -12.851562 51.75 -7.660156 47.125 -4.140625 C 42.5 -0.617188 35.71875 1.140625 26.78125 1.140625 Z M 26.78125 1.140625 "/></g></g></g><g fill="#046307" fill-opacity="1"><g transform="translate(953.415041, 432.374998)"><g><path d="M 1.625 0 L 1.625 -13.3125 L 5.6875 -13.3125 L 5.6875 -49.84375 L 1.625 -49.84375 L 1.625 -63.15625 L 56.421875 -63.15625 L 56.421875 -38.640625 L 38.234375 -38.640625 L 38.234375 -49.84375 L 28.40625 -49.84375 L 28.40625 -37.015625 L 35.546875 -37.015625 L 35.546875 -27.765625 L 28.40625 -27.765625 L 28.40625 -13.3125 L 38.234375 -13.3125 L 38.234375 -26.140625 L 56.421875 -26.140625 L 56.421875 0 Z M 1.625 0 "/></g></g></g><g fill="#046307" fill-opacity="1"><g transform="translate(1011.284972, 432.374998)"><g><path d="M 33.125 1.140625 C 22.894531 1.140625 15.003906 -1.457031 9.453125 -6.65625 C 3.910156 -11.851562 1.140625 -20.160156 1.140625 -31.578125 C 1.140625 -53.378906 11.742188 -64.28125 32.953125 -64.28125 C 38.097656 -64.28125 42.875 -63.65625 47.28125 -62.40625 C 51.6875 -61.164062 54.972656 -59.789062 57.140625 -58.28125 L 57.140625 -37.984375 L 37.65625 -37.984375 L 37.65625 -43.828125 C 37.65625 -45.890625 37.195312 -47.40625 36.28125 -48.375 C 35.363281 -49.351562 33.984375 -49.84375 32.140625 -49.84375 C 30.304688 -49.84375 28.925781 -49.351562 28 -48.375 C 27.082031 -47.40625 26.625 -45.890625 26.625 -43.828125 L 26.625 -19.3125 C 26.625 -17.257812 27.082031 -15.742188 28 -14.765625 C 28.925781 -13.796875 30.304688 -13.3125 32.140625 -13.3125 C 33.984375 -13.3125 35.363281 -13.796875 36.28125 -14.765625 C 37.195312 -15.742188 37.65625 -17.257812 37.65625 -19.3125 L 37.65625 -25.890625 L 57.140625 -25.890625 L 57.140625 -4.875 C 54.921875 -3.351562 51.632812 -1.96875 47.28125 -0.71875 C 42.925781 0.519531 38.207031 1.140625 33.125 1.140625 Z M 33.125 1.140625 "/></g></g></g><g fill="#046307" fill-opacity="1"><g transform="translate(1069.885402, 432.374998)"><g><path d="M 1.625 -13.3125 L 5.6875 -13.3125 L 5.6875 -49.84375 L 1.625 -49.84375 L 1.625 -63.15625 L 38.875 -63.15625 C 45.863281 -63.15625 51.195312 -61.71875 54.875 -58.84375 C 58.550781 -55.976562 60.390625 -51.328125 60.390625 -44.890625 C 60.390625 -41.265625 59.660156 -38.125 58.203125 -35.46875 C 56.742188 -32.820312 54.660156 -30.984375 51.953125 -29.953125 L 52.03125 -29.140625 C 57.226562 -28.328125 59.828125 -25.132812 59.828125 -19.5625 L 59.828125 -13.3125 L 63.640625 -13.3125 L 63.640625 0 L 37.90625 0 L 37.90625 -19.078125 C 37.90625 -21.179688 37.59375 -22.773438 36.96875 -23.859375 C 36.351562 -24.941406 35.378906 -25.671875 34.046875 -26.046875 C 32.722656 -26.429688 30.84375 -26.625 28.40625 -26.625 L 28.40625 -13.3125 L 33.765625 -13.3125 L 33.765625 0 L 1.625 0 Z M 32.796875 -36.53125 C 34.359375 -36.53125 35.53125 -36.945312 36.3125 -37.78125 C 37.101562 -38.625 37.5 -39.9375 37.5 -41.71875 L 37.5 -44.640625 C 37.5 -46.429688 37.101562 -47.742188 36.3125 -48.578125 C 35.53125 -49.421875 34.359375 -49.84375 32.796875 -49.84375 L 28.40625 -49.84375 L 28.40625 -36.53125 Z M 32.796875 -36.53125 "/></g></g></g><g fill="#046307" fill-opacity="1"><g transform="translate(1134.816612, 432.374998)"><g><path d="M 1.625 0 L 1.625 -13.3125 L 5.6875 -13.3125 L 5.6875 -49.84375 L 1.625 -49.84375 L 1.625 -63.15625 L 56.421875 -63.15625 L 56.421875 -38.640625 L 38.234375 -38.640625 L 38.234375 -49.84375 L 28.40625 -49.84375 L 28.40625 -37.015625 L 35.546875 -37.015625 L 35.546875 -27.765625 L 28.40625 -27.765625 L 28.40625 -13.3125 L 38.234375 -13.3125 L 38.234375 -26.140625 L 56.421875 -26.140625 L 56.421875 0 Z M 1.625 0 "/></g></g></g><g fill="#046307" fill-opacity="1"><g transform="translate(1192.686543, 432.374998)"><g><path d="M 62.171875 -43.515625 L 48.21875 -43.515625 L 48.21875 -49.84375 L 43.015625 -49.84375 L 43.015625 -13.3125 L 48.703125 -13.3125 L 48.703125 0 L 14.609375 0 L 14.609375 -13.3125 L 20.296875 -13.3125 L 20.296875 -49.84375 L 15.09375 -49.84375 L 15.09375 -43.515625 L 1.140625 -43.515625 L 1.140625 -63.15625 L 62.171875 -63.15625 Z M 62.171875 -43.515625 "/></g></g></g><g fill="#046307" fill-opacity="1"><g transform="translate(1255.994431, 432.374998)"><g><path d="M 26.78125 1.140625 C 21.59375 1.140625 16.679688 0.691406 12.046875 -0.203125 C 7.421875 -1.097656 3.863281 -2.113281 1.375 -3.25 L 1.375 -19.3125 L 19.234375 -19.3125 C 19.234375 -17.632812 19.613281 -16.414062 20.375 -15.65625 C 21.132812 -14.90625 22.515625 -14.53125 24.515625 -14.53125 C 26.191406 -14.53125 27.394531 -14.785156 28.125 -15.296875 C 28.851562 -15.816406 29.21875 -16.585938 29.21875 -17.609375 C 29.21875 -18.472656 28.863281 -19.21875 28.15625 -19.84375 C 27.457031 -20.46875 26.242188 -21.101562 24.515625 -21.75 L 17.53125 -24.1875 C 11.519531 -26.457031 7.203125 -29.132812 4.578125 -32.21875 C 1.960938 -35.3125 0.65625 -39.476562 0.65625 -44.71875 C 0.65625 -51.101562 2.75 -55.957031 6.9375 -59.28125 C 11.132812 -62.613281 18.128906 -64.28125 27.921875 -64.28125 C 32.628906 -64.28125 37.050781 -63.804688 41.1875 -62.859375 C 45.332031 -61.921875 48.675781 -60.664062 51.21875 -59.09375 L 51.21875 -44.5625 L 34.984375 -44.5625 C 34.984375 -47.269531 33.304688 -48.625 29.953125 -48.625 C 28.328125 -48.625 27.175781 -48.421875 26.5 -48.015625 C 25.820312 -47.609375 25.484375 -46.890625 25.484375 -45.859375 C 25.484375 -44.941406 25.875 -44.210938 26.65625 -43.671875 C 27.445312 -43.128906 28.734375 -42.5625 30.515625 -41.96875 L 37.578125 -39.53125 C 43.316406 -37.582031 47.5 -35.050781 50.125 -31.9375 C 52.75 -28.832031 54.0625 -24.757812 54.0625 -19.71875 C 54.0625 -12.851562 51.75 -7.660156 47.125 -4.140625 C 42.5 -0.617188 35.71875 1.140625 26.78125 1.140625 Z M 26.78125 1.140625 "/></g></g></g></svg>